<svg xmlns="http://www.w3.org/2000/svg" width="24" height="24" viewBox="0 0 24 24">
    <path fill="#B8B8B8" fill-rule="nonzero" d="M12.005 6.638a4.55 4.55 0 0 1 4.547 4.548c0 .59-.118 1.146-.327 1.664l2.655 2.656a10.748 10.748 0 0 0 3.12-4.32c-1.573-3.993-5.457-6.822-10.005-6.822-1.273 0-2.492.228-3.62.637l1.965 1.964a4.414 4.414 0 0 1 1.665-.327zM2.91 4.155L4.983 6.23l.419.418A10.736 10.736 0 0 0 2 11.186c1.573 3.992 5.457 6.82 10.005 6.82 1.41 0 2.755-.272 3.983-.763l.382.382 2.665 2.656 1.155-1.155L4.065 3 2.91 4.155zm5.03 5.03l1.409 1.41a2.566 2.566 0 0 0-.073.59 2.725 2.725 0 0 0 2.729 2.73c.2 0 .4-.028.59-.074l1.41 1.41c-.609.3-1.282.482-2 .482a4.55 4.55 0 0 1-4.548-4.547c0-.719.182-1.392.482-2.001zm3.919-.71l2.865 2.865.018-.145a2.725 2.725 0 0 0-2.728-2.729l-.155.01z"/>
</svg>
