<svg xmlns="http://www.w3.org/2000/svg" width="24" height="24" viewBox="0 0 24 24">
    <g fill="none" fill-rule="evenodd">
        <path d="M1 0h24v24H1z"/>
        <path fill="#000" fill-rule="nonzero" d="M12.267 4C7.6 4 3.615 6.903 2 11c1.615 4.097 5.6 7 10.267 7 4.666 0 8.652-2.903 10.266-7-1.614-4.097-5.6-7-10.266-7zm0 11.667A4.668 4.668 0 0 1 7.6 11a4.668 4.668 0 0 1 4.667-4.667A4.668 4.668 0 0 1 16.933 11a4.668 4.668 0 0 1-4.666 4.667zm0-7.467c-1.55 0-2.8 1.25-2.8 2.8 0 1.55 1.25 2.8 2.8 2.8 1.549 0 2.8-1.25 2.8-2.8 0-1.55-1.251-2.8-2.8-2.8z"/>
    </g>
</svg>
